<?xml version="1.0"?>
<svg id="Layer_1" data-name="Layer 1" xmlns="http://www.w3.org/2000/svg" viewBox="0 0 1024 1024">
  <defs>
    
  </defs>
  <path class="cls-1" d="M493.79,197.29c269-14.78,435.48,278.96,281.02,501.02-124.36,178.79-385.55,182.34-516.21,8.58-153.66-204.35-19.87-495.59,235.19-509.6ZM294,493c7.72-101.79,94.97-187.62,196.35-196.15l1.65-1.35v-55c-.75-1.02-.87-1.09-2.04-1.09-12.34-.02-28.8,3.34-40.97,6.07-117.3,26.35-204.7,127.56-213.99,247.51h59ZM534,239v58c102.23,6.2,192.16,93.31,199,196h59c-8.97-99.59-71.09-189.28-162.32-230.18-30.53-13.68-62.3-21.02-95.68-23.82ZM643.65,392.35c-108.21-112.35-302.62-42.24-309.69,115.11-5.96,132.6,131.1,225.7,252.72,171.72,111.54-49.51,142.58-197.93,56.97-286.83ZM293,534h-58c8.95,135.6,120.94,249.96,257,259v-58c-104.94-7.21-190.33-97.44-199-201ZM792,534h-59c-7.05,103.61-94.74,193.93-199,201v58c135.99-8.8,249.07-123.29,258-259Z"></path>
  <path class="cls-1" d="M588,646h-58v-28.5c0-.56-2.27-3.45-3.02-3.98-2.84-1.99-20.61-2.23-24.46-1.5-1.45.28-5.52,3.91-5.52,4.48v29.5h-58v-142l74.42-36.99c25.04,12.37,50.84,24,74.58,38.49v140.5ZM473.74,530.17c-2.98.61-6.27,4.32-6.68,7.39,1.26,15.77-1.88,34.59-.08,49.96,1.19,10.15,16.4,10.82,17.93-.11,1.33-9.54,1.25-39.2.11-48.93-.63-5.36-6.01-9.39-11.29-8.31ZM512.77,530.18c-3.27.35-7.55,2.67-7.71,6.38,1.01,16.08-1.56,34.15-.11,49.98,1.08,11.88,15.6,10.73,16.99,1.89,1.31-8.33,1.25-42.43.11-50.99-.55-4.15-5.08-7.72-9.28-7.27ZM548.73,530.17c-2.98.62-6.26,4.32-6.68,7.38,1.08,15.64-1.66,33.6-.05,48.94,1.19,11.34,15.43,11.48,16.94,1.95,1.38-8.68,1.16-40.86.08-49.97-.6-5.07-4.96-9.4-10.29-8.3Z"></path>
  <path class="cls-1" d="M405,488v44.5c0,3.26,7.48,14.82,7.93,21.14.43,5.95-3.86,9.72-3.86,12.86,0,1.93,5.55,13.08,6.48,17.45,1.13,5.31,2.96,16.6-1.58,20.52-2.84,2.45-23.83,2.18-27.34.39-6.09-3.1-3.5-15.25-2.34-21.07.93-4.67,6.22-15.23,6.3-17.29.09-2.31-2.89-6.38-3.36-9.25-1.76-10.74,5.72-16,6.79-24.74,1.87-15.28-1.48-34.17.01-49.86-6.47-3.76-13.5-6.59-20.07-10.19-1.13-.62-2.44.07-1.97-1.97l139.57-76.52,4.15.79,138.26,73.72-56.32,25.21-86.05-38.67-86.35,40.8c-5.74,1-14.43-6.85-20.25-7.83Z"></path>
</svg>